<svg width="128" height="128" viewBox="0 0 128 128" fill="none" xmlns="http://www.w3.org/2000/svg"><path d="M117.508 58.7541C117.508 91.2008 91.2043 117.508 58.755 117.508C26.306 117.508 0 91.2008 0 58.7541C0 26.3056 26.306 0 58.755 0C91.2043 0 117.508 26.3056 117.508 58.7541Z" fill="#5D9CEC"/><path d="M114.629 40.531C111.871 32.0749 107.124 24.2162 100.891 17.8043C94.6654 11.4032 86.9551 6.43468 78.5959 3.43506L76.1537 2.55835L75.4221 5.05054C75.0849 6.18751 74.8304 7.00867 74.6544 7.50348C72.474 8.52547 70.1432 9.44716 67.8875 10.3436C60.6906 13.1943 53.2511 16.1439 48.1193 22.9071C45.8867 25.8478 45.6285 28.9192 47.4468 30.9203C48.3988 31.9691 49.7851 32.5018 51.5672 32.5018C52.729 32.5018 53.9412 32.2831 55.0098 32.0912C55.7629 31.9549 56.5411 31.8151 56.9983 31.8151C57.0323 31.8151 57.0628 31.817 57.0933 31.8188C59.7237 32.007 64.6242 32.9376 69.0135 34.0815C73.8369 35.3367 76.3938 36.3981 77.484 37.0169C76.7523 37.8883 74.7909 39.235 72.1656 39.235C70.8817 39.235 69.6339 38.9034 68.4503 38.2504C66.6392 37.2516 62.1065 36.3033 55.8595 35.1879L55.2533 35.0785C54.9915 35.0319 54.6922 35.0085 54.3406 35.0085C51.7155 35.0085 45.524 36.2797 40.8891 41.094C36.8351 45.3022 34.9166 51.1027 35.1872 58.3321C35.3541 62.7769 36.8619 66.5495 39.5497 69.2388C42.2769 71.9716 46.0765 73.4383 50.5358 73.492C51.0664 73.4957 51.5991 73.4957 52.1281 73.4957H52.4832C55.0599 73.4957 57.7224 73.4957 59.6911 74.2379C60.9518 74.7112 62.5047 75.6436 63.3437 78.6703C64.2115 81.8189 64.4626 85.0391 64.7208 88.4493C64.9645 91.6587 65.223 94.9794 66.0405 98.2785C67.6612 104.813 70.9999 106.444 73.5137 106.663C73.8722 106.692 74.2309 106.706 74.5823 106.706C80.1768 106.706 83.8918 102.941 86.9294 99.4084C87.6537 98.5654 88.4462 97.7513 89.2855 96.8907C91.136 94.9936 93.0511 93.0323 94.4139 90.5398C95.9881 87.671 96.5511 84.6588 97.1035 81.7505C97.6199 78.9893 98.1147 76.3819 99.4273 74.1014C99.6065 73.7929 99.8147 73.4415 100.044 73.0436C106.711 61.6129 108.314 57.3815 106.905 54.9269C106.27 53.826 105.108 53.2307 103.752 53.3346C103.107 53.3849 102.468 53.4099 101.859 53.4099C97.8425 53.4099 94.5217 52.3053 92.7467 50.3795C92.2446 49.8345 92.0045 49.3647 91.8969 49.0525C91.9579 49.0489 92.0258 49.0473 92.1048 49.0473C93.281 49.0473 95.0884 49.5297 96.8347 49.9976C98.9469 50.5643 101.134 51.1488 103.056 51.1488C106.187 51.1488 108.224 49.5226 108.673 46.6751C109.117 45.8682 111.204 43.9013 112.617 43.7166L115.544 43.3347L114.629 40.531Z" fill="#A0D468"/><path d="M18.8541 70.2011C17.0141 67.5258 14.9075 64.9367 13.0159 62.3027C11.2532 59.8463 4.37351 48.6756 1.18518 46.958C0.408754 50.7698 0 54.7146 0 58.7543C0 73.0554 5.11046 86.159 13.6023 96.3504C13.6094 96.3575 13.622 96.3612 13.6399 96.3612C14.1545 96.3612 18.9404 92.8038 19.3742 92.4346C21.2587 90.8352 22.8365 88.8809 23.5429 86.4746C25.1908 80.8733 21.9525 74.7051 18.8541 70.2011Z" fill="#A0D468"/><path d="M73.5011 69.2484C72.326 69.219 71.1627 69.4393 70.3225 70.2617C69.4793 71.0842 69.2267 72.2444 69.2472 73.434C69.2707 74.6206 69.5205 75.9718 69.9817 77.6049L83.2457 124.56C83.5043 125.471 83.848 126.249 84.3915 126.863C84.932 127.474 85.7047 127.891 86.489 127.979C88.0519 128.144 89.3534 127.309 90.5197 126.232L99.756 117.684C100.473 116.967 101.131 117.173 101.624 117.666L111.178 126.837C112.012 127.636 113.094 127.962 114.145 127.967C115.194 127.973 116.29 127.644 117.121 126.816L126.834 117.108C127.668 116.274 127.997 115.184 128 114.124C128 113.067 127.677 111.95 126.81 111.128L117.262 101.955C116.742 101.438 116.775 100.674 117.3 100.149L126.193 90.9196C127.304 89.7623 128.156 88.4405 127.976 86.8661C127.888 86.0819 127.465 85.3094 126.851 84.7689C126.234 84.2285 125.456 83.8878 124.542 83.6234L77.6081 69.9827C76.01 69.5215 74.6762 69.2866 73.5011 69.2484Z" fill="white"/></svg>